<svg width="1710px" height="545px" viewBox="0 0 1710 545" version="1.1" xmlns="http://www.w3.org/2000/svg" xmlns:xlink="http://www.w3.org/1999/xlink">
  <g id="rocket-wordmark-copy" fill-rule="nonzero" fill="#fff">
    <path d="M94.3666667,545 L94.3666667,525.532695 L27.8666667,525.532695 C23.275,525.532695 21.2166667,523.000363 21.2166667,518.410511 L21.2166667,495.302978 C21.2166667,490.396584 23.275,488.180794 27.8666667,488.180794 L94.3666667,488.180794 L94.3666667,468.713489 L23.1166667,468.713489 C7.28333333,468.713489 1.13686838e-13,476.785298 1.13686838e-13,493.087188 L1.13686838e-13,520.784572 C1.13686838e-13,537.086462 7.28333333,545 23.1166667,545 L94.3666667,545 Z M194.591667,545 C210.583333,545 217.708333,537.086462 217.708333,520.784572 L217.708333,493.087188 C217.708333,476.785298 210.583333,468.713489 194.591667,468.713489 L140.283333,468.713489 C124.620208,468.713489 117.336875,476.785298 117.336875,493.087188 L117.336875,520.784572 C117.336875,537.086462 124.620208,545 140.287292,545 L194.591667,545 Z M196.491667,518.410511 C196.491667,523.000363 194.425417,525.532695 189.841667,525.532695 L145.033333,525.532695 C140.6,525.532695 138.541667,523.000363 138.541667,518.410511 L138.541667,495.302978 C138.541667,490.396584 140.6,488.180794 145.033333,488.180794 L189.841667,488.180794 C194.425417,488.180794 196.491667,490.396584 196.491667,495.302978 L196.491667,518.410511 L196.491667,518.410511 Z M375.25,544.208646 L375.25,492.928917 C375.25,476.785298 367.800417,468.713489 351.816667,468.713489 L240.825,468.713489 L240.825,544.208646 L262.041667,544.208646 L262.041667,488.180794 L297.508333,488.180794 L297.508333,544.208646 L318.725,544.208646 L318.725,488.180794 L346.433333,488.180794 C351.5,488.180794 354.025417,490.554855 354.025417,495.144708 L354.025417,544.208646 L375.25,544.208646 Z M532,544.208646 L532,492.928917 C532,476.785298 524.558333,468.713489 508.566667,468.713489 L397.416667,468.713489 L397.416667,544.208646 L418.791667,544.208646 L418.791667,488.180794 L454.1,488.180794 L454.1,544.208646 L475.316667,544.208646 L475.316667,488.180794 L503.025,488.180794 C508.25,488.180794 510.625,490.554855 510.625,495.144708 L510.625,544.208646 L532,544.208646 Z M654.708333,545 L654.708333,469.504843 L633.333333,469.504843 L633.333333,525.532695 L582.033333,525.532695 C577.76625,525.532695 575.383333,523.158634 575.383333,518.568781 L575.383333,469.504843 L554.166667,469.504843 L554.166667,520.784572 C554.166667,536.928191 561.45,545 576.95875,545 L654.700417,545 L654.708333,545 Z M779.633333,544.208646 L779.633333,492.928917 C779.633333,476.785298 772.18375,468.713489 756.504792,468.713489 L679.091667,468.713489 L679.091667,544.208646 L700.466667,544.208646 L700.466667,488.180794 L751.75875,488.180794 C756.192083,488.180794 758.40875,490.554855 758.40875,495.144708 L758.40875,544.208646 L779.637292,544.208646 L779.633333,544.208646 Z M803.225,544.208646 L824.43375,544.208646 L824.43375,469.504843 L803.217083,469.504843 L803.217083,544.208646 L803.225,544.208646 Z M941.925,545 L941.925,525.532695 L875.583333,525.532695 C870.991667,525.532695 868.933333,523.000363 868.933333,518.410511 L868.933333,495.302978 C868.933333,490.396584 870.991667,488.180794 875.583333,488.180794 L941.925,488.180794 L941.925,468.713489 L870.833333,468.713489 C855,468.713489 847.716667,476.785298 847.716667,493.087188 L847.716667,520.784572 C847.716667,537.086462 855,545 870.833333,545 L941.925,545 Z M1081.08812,544.841729 L1081.08812,493.878541 C1081.08812,476.785298 1073.80479,468.713489 1057.50833,468.713489 L971.216667,468.713489 L971.216667,488.180794 L1051.80833,488.180794 C1057.33812,488.180794 1059.725,490.871397 1059.725,496.569144 L1059.725,502.108621 L986.725417,502.108621 C973.900417,502.108621 969.30875,506.223661 969.30875,515.561637 L969.30875,526.640591 C969.30875,538.510898 973.900417,544.841729 986.725417,544.841729 L1081.09208,544.841729 L1081.08812,544.841729 Z M1059.72104,525.532695 L995.596042,525.532695 C991.946458,525.532695 990.529375,523.949988 990.529375,520.784572 L990.529375,516.352991 C990.529375,513.187575 991.946458,511.604868 995.596042,511.604868 L1059.72104,511.604868 L1059.72104,525.532695 L1059.72104,525.532695 Z M1164.7,544.208646 L1164.7,488.180794 L1203.49167,488.180794 L1203.49167,468.713489 L1104.84208,468.713489 L1104.84208,488.180794 L1143.48333,488.180794 L1143.48333,544.208646 L1164.7,544.208646 Z M1220.90042,544.208646 L1242.12896,544.208646 L1242.12896,469.504843 L1220.90437,469.504843 L1220.90437,544.208646 L1220.90042,544.208646 Z M1350.74167,545 C1366.575,545 1373.85042,537.086462 1373.85042,520.784572 L1373.85042,493.087188 C1373.85042,476.785298 1366.56708,468.713489 1350.73375,468.713489 L1296.43333,468.713489 C1280.75833,468.713489 1273.31667,476.785298 1273.31667,493.087188 L1273.31667,520.784572 C1273.31667,537.086462 1280.75833,545 1296.43333,545 L1350.74167,545 Z M1352.64167,518.410511 C1352.64167,523.000363 1350.58333,525.532695 1345.99167,525.532695 L1301.18333,525.532695 C1296.74208,525.532695 1294.68375,523.000363 1294.68375,518.410511 L1294.68375,495.302978 C1294.68375,490.396584 1296.74208,488.180794 1301.17542,488.180794 L1345.98375,488.180794 C1350.57542,488.180794 1352.63375,490.396584 1352.63375,495.302978 L1352.63375,518.410511 L1352.64167,518.410511 Z M1502.26667,544.208646 L1502.26667,492.928917 C1502.26667,476.785298 1494.825,468.713489 1478.99167,468.713489 L1401.725,468.713489 L1401.725,544.208646 L1422.95354,544.208646 L1422.95354,488.180794 L1474.24562,488.180794 C1478.83729,488.180794 1480.89562,490.554855 1480.89562,495.144708 L1480.89562,544.208646 L1502.27854,544.208646 L1502.26667,544.208646 Z M1610.71708,544.841729 C1623.70042,544.841729 1628.29208,538.510898 1628.29208,526.640591 L1628.29208,514.928554 C1628.29208,506.223661 1623.70042,502.108621 1610.71708,502.108621 L1553.56667,502.108621 C1550.4,502.108621 1549.13333,500.367643 1549.13333,497.202228 L1549.13333,493.087188 C1549.13333,489.763501 1550.4,488.180794 1553.56667,488.180794 L1626.4,488.180794 L1626.4,468.713489 L1545.32542,468.713489 C1532.50833,468.713489 1527.76229,475.360861 1527.76229,487.072898 L1527.76229,498.626664 C1527.76229,507.489828 1532.51229,511.604868 1545.32937,511.604868 L1602.80437,511.604868 C1605.82062,511.604868 1607.08729,513.504117 1607.08729,516.352991 L1607.08729,520.784572 C1607.08729,523.949988 1605.66229,525.532695 1602.49562,525.532695 L1527.76229,525.532695 L1527.76229,544.841729 L1610.72104,544.841729 L1610.71708,544.841729 Z" id="wordmark-rocket"></path>
    <path d="M167.833333,381.822836 L105.608333,228.775002 L71.5666667,228.775002 L71.5666667,381.822836 L1.13686838e-13,381.822836 L1.13686838e-13,5.7714875 L103.55,5.7714875 C189.525,5.7714875 230.533333,47.3966999 230.533333,118.302005 C230.533333,165.150153 213.908333,199.020097 174.008333,214.214091 L244.466667,381.822836 L167.833333,381.822836 Z M71.5666667,169.257279 L108.3,169.257279 C139.808333,169.257279 158.966667,153.746744 158.966667,117.198066 C158.966667,80.7957891 139.808333,65.1269829 108.3,65.1269829 L71.5666667,65.1269829 L71.5666667,169.265193 L71.5666667,169.257279 Z M294.816667,126.690356 C294.816667,33.9436845 343.425,0.5485521 412.933333,0.5485521 C482.283333,0.5485521 531.05,33.9436845 531.05,126.690356 L531.05,261.062239 C531.05,353.80891 482.283333,387.045772 412.933333,387.045772 C343.425,387.045772 294.816667,353.80891 294.816667,261.062239 L294.816667,126.690356 L294.816667,126.690356 Z M366.225,270.400215 C366.225,312.025427 384.425417,323.579193 412.933333,323.579193 C441.433333,323.579193 459.483333,312.025427 459.483333,270.400215 L459.483333,117.194109 C459.483333,75.568897 441.433333,64.1734015 412.933333,64.1734015 C384.425417,64.1734015 366.225,75.568897 366.225,117.194109 L366.225,270.400215 Z M673.075,270.400215 C673.075,312.025427 691.283333,323.57128 719.783333,323.57128 C748.283333,323.57128 766.325417,312.017513 766.325417,270.392301 L766.325417,245.385519 L837.9,245.385519 L837.9,261.062239 C837.9,353.80891 789.133333,387.045772 719.783333,387.045772 C650.263125,387.045772 601.666667,353.80891 601.666667,261.062239 L601.666667,126.690356 C601.666667,33.9436845 650.263125,0.5485521 719.783333,0.5485521 C789.133333,0.5485521 837.9,33.9436845 837.9,126.690356 L837.9,127.63998 L766.325417,127.63998 L766.325417,117.194109 C766.325417,75.568897 748.275417,64.1734015 719.783333,64.1734015 C691.283333,64.1734015 673.075,75.568897 673.075,117.194109 L673.075,270.400215 Z M908.825417,381.822836 L908.825417,5.7714875 L980.4,5.7714875 L980.4,161.035113 L981.342083,161.035113 L1074.13333,5.7714875 L1152.34208,5.7714875 L1055.91708,157.386971 L1163.26708,381.822836 L1082.83375,381.822836 L1008.25875,224.026879 L980.4,266.759987 L980.4,381.822836 L908.825417,381.822836 L908.825417,381.822836 Z M1215.67542,381.822836 L1215.67542,5.7714875 L1411.53375,5.7714875 L1411.53375,69.2380662 L1287.09167,69.2380662 L1287.09167,155.812177 L1381.92542,155.812177 L1381.92542,219.278756 L1287.09167,219.278756 L1287.09167,318.356258 L1416.60833,318.356258 L1416.60833,381.822836 L1215.67542,381.822836 L1215.67542,381.822836 Z M1710,5.7714875 L1710,69.2380662 L1626.55042,69.2380662 L1626.55042,381.822836 L1555.14208,381.822836 L1555.14208,69.2380662 L1471.71229,69.2380662 L1471.71229,5.7714875 L1710,5.7714875 Z" id="wordmark-communications"></path>
  </g>
</svg>